<svg width="77" height="77" fill="none" xmlns="http://www.w3.org/2000/svg"><path d="M51.425 7.337c-.153.956-.23 1.912-.23 2.868 0 8.602 6.96 15.557 15.524 15.557.956 0 1.873-.11 2.83-.264V56.35C69.548 69.316 61.9 77 48.901 77H20.65C7.647 77 0 69.316 0 56.35V28.06c0-13 7.647-20.723 20.65-20.723h30.775Zm.769 23.246a2.937 2.937 0 0 0-2.68 1.186l-9.25 11.967-10.594-8.335a3.02 3.02 0 0 0-2.18-.612 2.962 2.962 0 0 0-1.911 1.143L14.265 50.656l-.233.345c-.65 1.22-.344 2.787.803 3.632.535.344 1.109.573 1.759.573.883.039 1.72-.424 2.255-1.147l9.597-12.353 10.897 8.186.344.225a2.86 2.86 0 0 0 3.632-.803l11.05-14.257-.153.076a2.863 2.863 0 0 0 .306-2.867c-.417-.956-1.338-1.606-2.328-1.683ZM67.254.53c5.086 0 9.215 4.13 9.215 9.215s-4.13 9.214-9.215 9.214-9.214-4.13-9.214-9.214c0-5.086 4.13-9.215 9.214-9.215Z" fill="#000"/></svg>