<svg width="77" height="77" fill="none" xmlns="http://www.w3.org/2000/svg"><path d="M56.086.531c13.003 0 20.344 7.376 20.383 20.38v35.71c0 13-7.38 20.38-20.383 20.38H20.379C7.375 77 0 69.62 0 56.62v-35.71C0 7.906 7.375.53 20.379.53h35.707Zm-15.94 15.791c-1.074-.65-2.374-.65-3.403 0a3.225 3.225 0 0 0-1.495 3.02v38.962c.195 1.644 1.568 2.867 3.174 2.867 1.648 0 3.02-1.223 3.173-2.867V19.343c.153-1.186-.417-2.375-1.449-3.02ZM22.291 28.863a3.146 3.146 0 0 0-3.365 0 3.215 3.215 0 0 0-1.491 3.02v26.42c.149 1.645 1.525 2.868 3.17 2.868 1.647 0 3.02-1.223 3.173-2.867v-26.42a3.22 3.22 0 0 0-1.487-3.02Zm35.4 13.88c-1.028-.65-2.328-.65-3.398 0-1.036.65-1.606 1.792-1.453 3.02v12.54c.153 1.645 1.525 2.868 3.173 2.868 1.606 0 2.979-1.223 3.174-2.867V45.763a3.19 3.19 0 0 0-1.495-3.02Z" fill="#000"/></svg>