<svg width="50" height="60" fill="none" xmlns="http://www.w3.org/2000/svg"><path d="M30 10c11.023 0 20 8.973 20 20.012C50 41.028 41.023 50 30 50s-20-8.972-20-19.988C10 18.972 18.977 10 30 10Zm-2.278 12.06c-.425 0-.83.096-1.216.29-.483.27-.869.694-1.081 1.196-.135.347-.348 1.389-.348 1.408-.212 1.139-.328 2.991-.328 5.036 0 1.951.116 3.724.29 4.882.019.02.231 1.312.463 1.756a2.43 2.43 0 0 0 2.143 1.312h.077c.58-.02 1.795-.52 1.795-.54 2.047-.85 6.082-3.493 7.703-5.248l.116-.116c.212-.213.483-.54.54-.618.31-.405.464-.907.464-1.406 0-.562-.174-1.083-.502-1.507-.077-.078-.367-.406-.637-.676-1.583-1.698-5.715-4.476-7.877-5.325-.328-.134-1.158-.425-1.602-.444Z" fill="#5F6064"/><path fill-rule="evenodd" clip-rule="evenodd" d="M30 0C13.431 0 0 13.431 0 30c0 16.569 13.431 30 30 30v-4C15.64 56 4 44.36 4 30S15.64 4 30 4V0Z" fill="#F60"/></svg>