<svg width="77" height="58" fill="none" xmlns="http://www.w3.org/2000/svg"><path d="M37.871.333c9.26 0 15.726 6.381 15.726 15.527v26.298c0 9.145-6.465 15.526-15.726 15.526H15.726C6.466 57.684 0 51.303 0 42.158V15.86C0 6.714 6.465.333 15.726.333H37.87Zm30.79 9.096a5.287 5.287 0 0 1 5.25.244 5.469 5.469 0 0 1 2.558 4.662v29.35c0 1.913-.956 3.656-2.558 4.661a5.347 5.347 0 0 1-2.841.827 5.294 5.294 0 0 1-2.413-.586l-5.662-2.857c-2.096-1.063-3.396-3.198-3.396-5.57V17.856c0-2.376 1.3-4.51 3.396-5.566l5.666-2.861Z" fill="#000"/></svg>